<svg xmlns="http://www.w3.org/2000/svg" viewBox="0 0 520 560" role="img" aria-labelledby="title">
  <title id="title">TuZoca keeper idle</title>
  <defs>
    <linearGradient id="shirt" x1="0" x2="1" y1="0" y2="1">
      <stop offset="0" stop-color="#ffe56a"/>
      <stop offset="0.54" stop-color="#ffd21e"/>
      <stop offset="1" stop-color="#dba90d"/>
    </linearGradient>
    <linearGradient id="skin" x1="0" x2="1" y1="0" y2="1">
      <stop offset="0" stop-color="#ffc095"/>
      <stop offset="1" stop-color="#f3a06f"/>
    </linearGradient>
    <linearGradient id="shorts" x1="0" x2="1" y1="0" y2="1">
      <stop offset="0" stop-color="#28354a"/>
      <stop offset="1" stop-color="#151d2e"/>
    </linearGradient>
    <filter id="shadow" x="-20%" y="-20%" width="140%" height="150%">
      <feDropShadow dx="0" dy="12" stdDeviation="8" flood-color="#000" flood-opacity=".28"/>
    </filter>
  </defs>
  <g filter="url(#shadow)">
    <path fill="url(#skin)" d="M227 113h66v63c0 22-66 22-66 0z"/>
    <path fill="#332b27" d="M206 40c35-44 104-35 119 21 10 38-2 82-19 98-2-31-5-62-23-67-30 16-57 9-72-2-10 12-12 41-13 66-20-29-22-83 8-116z"/>
    <path fill="url(#skin)" d="M199 85c7-42 37-58 72-51 39 8 55 33 51 74-5 56-30 88-63 88-36 0-68-45-60-111z"/>
    <path fill="#493a31" opacity=".18" d="M206 43c31-28 86-25 108 13 15 26 11 65-5 98-2-34-6-57-24-63-32 16-59 10-75-2-9 12-11 39-12 66-18-32-17-84 8-112z"/>
    <path fill="url(#shirt)" d="M137 199l95-28h55l96 28 32 173H105z"/>
    <path fill="#c8990e" opacity=".22" d="M146 231l80-24 6 178H117zM374 231l-81-24-6 178h115z"/>
    <path fill="none" stroke="#c99b16" stroke-width="11" d="M222 172c4 40 72 40 76 0"/>
    <path fill="#b68b13" opacity=".52" d="M186 272h150v23H186z"/>
    <text x="260" y="292" text-anchor="middle" fill="#8d6b13" opacity=".64" font-family="Arial, sans-serif" font-size="34" font-weight="700">TUZOCA</text>
    <circle cx="318" cy="238" r="25" fill="#b88c12" opacity=".62"/>
    <text x="318" y="250" text-anchor="middle" fill="#fff6bb" font-family="Arial, sans-serif" font-size="34" font-weight="700">Z</text>
    <path fill="url(#shirt)" d="M136 202L49 232l-18 31 117 6zM384 202l87 30 18 31-117 6z"/>
    <path fill="#caa00f" opacity=".28" d="M49 232l87-30 10 39-107 15zM471 232l-87-30-10 39 107 15z"/>
    <path fill="#c72d2d" d="M31 247c-24-3-35 19-24 34 12 16 35 15 57 9l-2-33zM489 247c24-3 35 19 24 34-12 16-35 15-57 9l2-33z"/>
    <path fill="#a52228" d="M60 246h32v55H60zM428 246h32v55h-32z"/>
    <path fill="url(#shorts)" d="M112 372h296l-58 92-89-44-89 44z"/>
    <path fill="url(#skin)" d="M162 443l42-20 32 27-61 78h-39zM358 443l-42-20-32 27 61 78h39z"/>
    <path fill="#f5f5f1" d="M136 520h42l-8 34h-52zM342 520h42l18 34h-52z"/>
    <path fill="#c8322d" d="M102 543h78c14 0 20 17 8 25H95c-9-9-5-25 7-25zM340 543h78c12 0 16 16 7 25h-93c-12-8-6-25 8-25z"/>
  </g>
</svg>
