<svg xmlns="http://www.w3.org/2000/svg" viewBox="0 0 760 430" role="img" aria-labelledby="title">
  <title id="title">TuZoca keeper dive right</title>
  <defs>
    <linearGradient id="shirt" x1="0" x2="1" y1="0" y2="1">
      <stop offset="0" stop-color="#ffe56a"/>
      <stop offset="0.55" stop-color="#ffd21e"/>
      <stop offset="1" stop-color="#dba90d"/>
    </linearGradient>
    <linearGradient id="skin" x1="0" x2="1" y1="0" y2="1">
      <stop offset="0" stop-color="#ffc095"/>
      <stop offset="1" stop-color="#f3a06f"/>
    </linearGradient>
    <linearGradient id="shorts" x1="0" x2="1" y1="0" y2="1">
      <stop offset="0" stop-color="#28354a"/>
      <stop offset="1" stop-color="#151d2e"/>
    </linearGradient>
    <filter id="shadow" x="-20%" y="-30%" width="140%" height="170%">
      <feDropShadow dx="0" dy="13" stdDeviation="8" flood-color="#000" flood-opacity=".3"/>
    </filter>
  </defs>
  <g transform="translate(760 0) scale(-1 1)">
    <g filter="url(#shadow)" transform="translate(70 300) rotate(-31)">
      <path fill="url(#shirt)" d="M160-105h210l45 145H120z"/>
      <path fill="#c8990e" opacity=".22" d="M170-90h70L238 44H129zM357-91h-75L294 44h112z"/>
      <path fill="#b68b13" opacity=".5" d="M206-20h121v21H206z"/>
      <text x="266" y="-2" text-anchor="middle" fill="#8d6b13" opacity=".65" font-family="Arial, sans-serif" font-size="30" font-weight="700">TUZOCA</text>
      <circle cx="331" cy="-45" r="22" fill="#b88c12" opacity=".62"/>
      <text x="331" y="-34" text-anchor="middle" fill="#fff6bb" font-family="Arial, sans-serif" font-size="31" font-weight="700">Z</text>
      <path fill="url(#skin)" d="M236-171h58v57c0 20-58 20-58 0z"/>
      <path fill="url(#skin)" d="M215-250c8-40 36-55 68-47 36 8 49 34 43 72-8 49-32 76-62 75-33-2-61-40-49-100z"/>
      <path fill="#332b27" d="M224-292c31-37 91-26 104 21 8 31-2 70-18 85-2-27-5-52-21-58-26 13-50 7-63-4-8 11-10 34-12 55-17-26-16-70 10-99z"/>
      <path fill="none" stroke="#c99b16" stroke-width="10" d="M232-114c4 35 62 35 66 0"/>
      <path fill="url(#shirt)" d="M158-102L26-145-3-126 120-50zM368-103l130-36 26 24L410-49z"/>
      <path fill="#c72d2d" d="M-28-142c-22-10-41 8-36 25 5 18 27 25 49 27l14-34zM522-141c23-8 40 10 34 27-7 18-29 23-51 24l-11-34z"/>
      <path fill="#a52228" d="M-4-151h31v50H-4zM474-150h31v50h-31z"/>
      <path fill="url(#shorts)" d="M126 38h286l-64 79-84-37-86 42z"/>
      <path fill="url(#skin)" d="M177 100l55-26 25 24-110 65-44-3zM348 96l-28-31 25-26 132 30 28 34z"/>
      <path fill="#f5f5f1" d="M105 156l43 4-15 31-54-5zM501 101l-28-33 32-14 43 45z"/>
      <path fill="#c8322d" d="M55 176l78 8c14 1 17 19 4 25l-92-9c-8-10-2-25 10-24zM536 90l50 58c9 11 0 26-15 24l-61-70c1-13 17-21 26-12z"/>
    </g>
  </g>
</svg>
