<svg xmlns="http://www.w3.org/2000/svg" viewBox="0 0 720 170" role="img" aria-labelledby="title">
  <title id="title">TuZoca wordmark</title>
  <rect width="720" height="170" rx="32" fill="#06291c"/>
  <g fill="#d9b432">
    <rect x="72" y="78" width="20" height="20"/>
    <path d="M118 78h102v25h-39v71h-25v-71h-38V78z"/>
    <path d="M236 78h25v53c0 14 8 22 22 22s22-8 22-22V78h25v54c0 28-19 45-47 45s-47-17-47-45V78z"/>
    <path d="M351 62h108c-8 22-22 39-44 57l-58 58h101v29H338c9-25 26-47 50-70l43-45h-80V62z"/>
    <path d="M498 77c31 0 54 21 54 50s-23 50-54 50-54-21-54-50 23-50 54-50zm0 24c-16 0-28 11-28 26s12 26 28 26 28-11 28-26-12-26-28-26z"/>
    <path d="M608 77c29 0 50 17 54 43h-26c-4-12-14-19-28-19-17 0-29 11-29 26s12 26 29 26c14 0 24-7 28-19h26c-4 26-25 43-54 43-32 0-55-21-55-50s23-50 55-50z"/>
  </g>
</svg>
